<svg width="331" height="105" viewBox="0 0 331 105" fill="none" xmlns="http://www.w3.org/2000/svg">
<path d="M49.6375 0C22.2241 0 0 23.5055 0 52.5003C0 81.4964 22.2241 105 49.6375 105C77.054 105 99.2756 81.4964 99.2756 52.5003C99.2756 23.5073 77.054 0.0025077 49.6369 0.0025077L49.6375 0ZM72.401 75.7205C71.5119 77.2628 69.6033 77.7518 68.1451 76.8051C56.4907 69.2757 41.8193 67.5704 24.5411 71.7458C22.8761 72.147 21.2164 71.0436 20.8371 69.282C20.4559 67.5203 21.495 65.7649 23.1641 65.3636C42.0724 60.7946 58.2915 62.7619 71.3755 71.2192C72.8337 72.1658 73.296 74.1783 72.401 75.7205ZM78.4765 61.4253C77.3562 63.3512 74.9734 63.9593 73.1537 62.7744C59.8112 54.1002 39.4727 51.5881 23.6911 56.655C21.6444 57.3089 19.4827 56.0889 18.8615 53.9278C18.245 51.763 19.3991 49.481 21.4422 48.8227C39.4691 43.0374 61.8799 45.8398 77.2021 55.7986C79.0218 56.9835 79.5968 59.5031 78.4765 61.4253ZM78.9981 46.5395C63.0002 36.4892 36.6056 35.5651 21.3314 40.4683C18.8787 41.2551 16.2848 39.7906 15.5415 37.1963C14.7983 34.6009 16.1817 31.8593 18.6362 31.0706C36.17 25.4408 65.3178 26.5285 83.7365 38.0935C85.9474 39.4784 86.6705 42.492 85.3606 44.8223C84.0565 47.1557 81.1995 47.925 79.0005 46.5395H78.9981ZM135.047 48.4654C126.476 46.3037 124.953 44.7866 124.953 41.5986C124.953 38.5869 127.632 36.56 131.621 36.56C135.486 36.56 139.315 38.0991 143.334 41.2676C143.452 41.3635 143.606 41.4018 143.755 41.3767C143.909 41.3529 144.039 41.2657 144.128 41.1347L148.313 34.8955C148.485 34.6385 148.437 34.2843 148.206 34.088C143.423 30.0299 138.041 28.057 131.746 28.057C122.493 28.057 116.026 33.9307 116.026 42.3347C116.026 51.3468 121.604 54.5378 131.242 57.001C139.439 58.9991 140.826 60.673 140.826 63.6647C140.826 66.9811 138.029 69.0437 133.524 69.0437C128.521 69.0437 124.437 67.257 119.873 63.0816C119.761 62.975 119.606 62.9312 119.464 62.9374C119.31 62.95 119.174 63.0252 119.079 63.1443L114.384 69.05C114.189 69.3008 114.213 69.6644 114.438 69.8775C119.749 74.893 126.281 77.5386 133.334 77.5386C143.304 77.5386 149.747 71.7771 149.747 62.8559C149.765 55.3284 145.503 51.1593 135.065 48.4735L135.047 48.4654ZM172.307 39.5254C167.986 39.5254 164.441 41.3259 161.513 45.0154V40.8626C161.513 40.5347 161.264 40.2677 160.956 40.2677H153.28C152.972 40.2677 152.723 40.5347 152.723 40.8626V87.0053C152.723 87.3313 152.972 87.6008 153.28 87.6008H160.956C161.264 87.6008 161.513 87.3313 161.513 87.0053V72.4417C164.441 75.9086 167.986 77.6076 172.307 77.6076C180.338 77.6076 188.471 71.0687 188.471 58.5684C188.482 46.0655 180.35 39.5248 172.313 39.5248L172.307 39.5254ZM179.544 58.5684C179.544 64.9311 175.839 69.376 170.528 69.376C165.283 69.376 161.323 64.7304 161.323 58.5684C161.323 52.4056 165.283 47.7614 170.528 47.7614C175.75 47.7607 179.544 52.3053 179.544 58.5684ZM209.305 39.5254C198.962 39.5254 190.859 47.9488 190.859 58.7044C190.859 69.3446 198.909 77.6765 209.181 77.6765C219.56 77.6765 227.686 69.282 227.686 58.5684C227.686 47.8911 219.613 39.5266 209.305 39.5266V39.5254ZM209.305 69.4387C203.805 69.4387 199.656 64.7618 199.656 58.5652C199.656 52.3404 203.662 47.8234 209.181 47.8234C214.717 47.8234 218.89 52.4984 218.89 58.7013C218.89 64.9248 214.859 69.4387 209.305 69.4387ZM249.771 40.2677H241.325V31.1358C241.325 30.8086 241.076 30.5415 240.768 30.5415H233.092C232.784 30.5415 232.529 30.8086 232.529 31.1358V40.2677H228.842C228.534 40.2677 228.285 40.5347 228.285 40.8626V47.8385C228.285 48.1657 228.534 48.4334 228.842 48.4334H232.529V66.4859C232.529 73.777 235.961 77.4759 242.736 77.4759C245.486 77.4759 247.768 76.8741 249.92 75.5826C250.097 75.4823 250.204 75.2817 250.204 75.0685V68.4231C250.204 68.2224 250.103 68.0281 249.937 67.9215C249.771 67.8087 249.564 67.8024 249.392 67.8964C247.916 68.6801 246.488 69.0437 244.887 69.0437C242.427 69.0437 241.325 67.8588 241.325 65.2132V48.4366H249.771C250.08 48.4366 250.329 48.1695 250.329 47.8416V40.8664C250.34 40.5385 250.091 40.2714 249.777 40.2714L249.771 40.2677ZM279.195 40.3034V39.1818C279.195 35.8823 280.392 34.4109 283.071 34.4109C284.672 34.4109 285.958 34.7469 287.398 35.2547C287.576 35.3137 287.76 35.2842 287.902 35.172C288.05 35.0598 288.133 34.8798 288.133 34.6893V27.8495C288.133 27.588 287.979 27.3567 287.736 27.2796C286.219 26.8012 284.275 26.3103 281.358 26.3103C274.275 26.3103 270.523 30.5321 270.523 38.5148V40.2326H266.836C266.528 40.2326 266.273 40.4996 266.273 40.8269V47.8385C266.273 48.1657 266.528 48.4334 266.836 48.4334H270.523V76.2722C270.523 76.6045 270.778 76.8678 271.086 76.8678H278.756C279.07 76.8678 279.319 76.6045 279.319 76.2722V48.4353H286.485L297.463 76.2722C296.218 79.1937 294.991 79.7768 293.32 79.7768C291.968 79.7768 290.54 79.3504 289.088 78.5041C288.951 78.4289 288.785 78.4163 288.643 78.4602C288.495 78.5166 288.37 78.6295 288.311 78.7799L285.709 84.8173C285.585 85.1057 285.691 85.4379 285.952 85.5884C288.667 87.1432 291.115 87.8077 294.144 87.8077C299.81 87.8077 302.946 85.0116 305.702 77.501L319.015 41.1159C319.086 40.9328 319.062 40.726 318.956 40.5636C318.855 40.4025 318.683 40.3053 318.499 40.3053H310.509C310.266 40.3053 310.053 40.4664 309.976 40.704L301.79 65.4263L292.828 40.6877C292.745 40.4576 292.537 40.3053 292.306 40.3053H279.195V40.3034ZM262.136 40.2677H254.46C254.152 40.2677 253.897 40.5347 253.897 40.8626V76.2722C253.897 76.6045 254.152 76.8678 254.46 76.8678H262.136C262.444 76.8678 262.699 76.6045 262.699 76.2722V40.8651C262.699 40.5372 262.45 40.2702 262.136 40.2702V40.2677ZM258.342 24.1437C255.302 24.1437 252.836 26.7467 252.836 29.9622C252.836 33.1796 255.302 35.7858 258.342 35.7858C261.383 35.7858 263.843 33.1796 263.843 29.9622C263.843 26.7473 261.377 24.1437 258.342 24.1437ZM325.571 51.6533C322.536 51.6533 320.171 49.0735 320.171 45.9408C320.171 42.808 322.565 40.1987 325.6 40.1987C328.635 40.1987 331 42.7779 331 45.9081C331 49.0409 328.605 51.6533 325.571 51.6533ZM325.6 40.7667C322.832 40.7667 320.74 43.0926 320.74 45.9408C320.74 48.7876 322.82 51.0822 325.571 51.0822C328.339 51.0822 330.431 48.7582 330.431 45.9081C330.431 43.0613 328.35 40.7667 325.6 40.7667ZM326.798 46.4956L328.327 48.7575H327.035L325.659 46.6824H324.48V48.7575H323.401V42.7616H325.926C327.248 42.7616 328.113 43.4744 328.113 44.6744C328.119 45.6574 327.58 46.258 326.803 46.4956H326.798ZM325.885 43.7904H324.48V45.6868H325.885C326.584 45.6868 327.005 45.3239 327.005 44.7377C327.005 44.1208 326.584 43.7904 325.885 43.7904Z" fill="#62CD5D"/>
</svg>
