<svg width="322" height="301" viewBox="0 0 322 301" fill="none" xmlns="http://www.w3.org/2000/svg">
<path fill-rule="evenodd" clip-rule="evenodd" d="M275.086 0C257.716 5.21764 235.427 13.1391 221.606 28.2609C217.281 32.9927 213.784 38.4306 211.526 44.7106C208.367 48.3395 205.691 52.372 203.672 56.8659C203.338 57.2135 203.009 57.5649 202.684 57.9203C200.223 60.6131 198.029 63.5345 196.18 66.7097C194.829 67.9418 193.535 69.2276 192.308 70.5701C191.929 70.9852 191.556 71.4058 191.189 71.8319C175.103 77.0501 156.539 84.7678 144.452 97.9926C137.535 105.56 132.735 114.934 131.736 126.671C130.737 138.405 133.537 152.477 141.776 169.437C160.969 208.943 189.526 225.728 211.485 238.634C213.524 239.833 215.506 240.998 217.419 242.145C228.692 248.904 237.474 254.987 241.326 263.466C245.168 271.921 244.141 282.852 235.515 299.387L236.027 299.678C244.676 283.099 245.801 271.968 241.845 263.262C237.9 254.58 228.936 248.406 217.688 241.662C215.773 240.514 213.791 239.349 211.753 238.151C189.799 225.246 161.395 208.549 142.289 169.22C134.083 152.329 131.318 138.365 132.307 126.76C133.295 115.157 138.037 105.888 144.888 98.3925C156.654 85.5187 174.634 77.8826 190.477 72.6772C190.268 72.9309 190.061 73.1866 189.856 73.4442C189.289 73.8757 188.729 74.3146 188.176 74.7612C176.729 79.6142 165.451 86.0782 157.194 95.1117C150.277 102.68 145.478 112.053 144.478 123.79C143.479 135.524 146.279 149.596 154.519 166.556C173.711 206.062 202.268 222.847 224.227 235.753L224.233 235.757C226.27 236.954 228.25 238.118 230.161 239.264C241.434 246.023 250.216 252.107 254.068 260.585C257.91 269.04 256.883 279.971 248.257 296.506L248.77 296.797C257.418 280.218 258.543 269.087 254.587 260.382C250.642 251.699 241.678 245.525 230.43 238.781C228.518 237.635 226.539 236.471 224.504 235.275L224.499 235.272L224.495 235.27C202.542 222.365 174.137 205.668 155.031 166.339C146.826 149.449 144.06 135.484 145.049 123.879C146.037 112.276 150.779 103.007 157.63 95.5117C165.374 87.0392 175.809 80.8352 186.555 76.0997C180.22 79.8199 174.349 84.2288 169.514 89.5188C162.597 97.0867 157.797 106.461 156.798 118.197C155.798 129.931 158.599 144.003 166.838 160.963C186.03 200.469 214.588 217.254 236.547 230.161L236.548 230.161C238.587 231.36 240.569 232.524 242.481 233.671C253.753 240.43 262.536 246.514 266.388 254.992C270.23 263.447 269.203 274.378 260.577 290.913L261.089 291.204C269.738 274.625 270.863 263.494 266.907 254.789C262.962 246.106 253.998 239.932 242.749 233.188C240.838 232.042 238.858 230.878 236.824 229.682L236.818 229.679L236.815 229.677C214.861 216.772 186.457 200.075 167.351 160.746C159.145 143.856 156.38 129.891 157.369 118.286C158.357 106.683 163.098 97.4145 169.95 89.9187C174.071 85.4094 178.955 81.5427 184.242 78.198C183.207 79.1788 182.208 80.1927 181.249 81.2413C174.332 88.8092 169.533 98.1831 168.534 109.92C167.534 121.654 170.335 135.726 178.574 152.686C197.766 192.192 226.323 208.976 248.283 221.883L248.284 221.884L248.294 221.89L248.301 221.894L248.311 221.9L248.32 221.905L248.33 221.911L248.338 221.916L248.338 221.916L248.341 221.917C250.359 223.104 252.322 224.258 254.216 225.393C265.489 232.152 274.272 238.236 278.124 246.714C281.966 255.169 280.939 266.101 272.313 282.636L272.825 282.926C281.474 266.348 282.598 255.217 278.643 246.511C274.698 237.829 265.734 231.655 254.485 224.91C252.571 223.763 250.589 222.597 248.55 221.399C226.597 208.494 198.193 191.797 179.086 152.468C170.881 135.578 168.116 121.614 169.104 110.008C170.093 98.4058 174.834 89.137 181.685 81.6412C183.329 79.8431 185.094 78.1471 186.957 76.5457C187.298 76.3456 187.641 76.1476 187.985 75.9515C183.426 82.4699 180.367 90.1491 179.592 99.2487C178.593 110.983 181.393 125.054 189.633 142.015C208.825 181.52 237.382 198.305 259.341 211.212C261.38 212.41 263.363 213.575 265.275 214.722C276.548 221.481 285.33 227.565 289.183 236.043C293.024 244.498 291.997 255.43 283.371 271.965L283.884 272.255C292.532 255.677 293.657 244.545 289.702 235.84C285.757 227.158 276.793 220.984 265.544 214.239C263.63 213.092 261.647 211.926 259.609 210.728L259.609 210.728C237.656 197.823 209.252 181.126 190.145 141.797C181.94 124.907 179.175 110.943 180.163 99.3372C180.97 89.8584 184.283 81.9373 189.204 75.2679C189.992 74.8329 190.786 74.4079 191.585 73.9925C192.038 73.8121 192.49 73.6341 192.943 73.4584C191.402 77.4753 190.373 81.8431 189.968 86.5989C188.968 98.3329 191.769 112.405 200.008 129.365C219.201 168.871 247.758 185.655 269.717 198.562C271.756 199.761 273.738 200.926 275.651 202.072C286.924 208.831 295.706 214.915 299.558 223.393C303.4 231.848 302.373 242.78 293.747 259.315L294.259 259.605C302.908 243.027 304.033 231.896 300.077 223.19C296.132 214.508 287.168 208.334 275.92 201.589C274.005 200.442 272.023 199.276 269.985 198.078C248.031 185.173 219.627 168.476 200.521 129.147C192.315 112.257 189.55 98.2928 190.539 86.6874C190.957 81.7789 192.046 77.2881 193.684 73.1725C195.754 72.379 197.816 71.6333 199.854 70.9296C199.799 71.4093 199.751 71.8929 199.71 72.3807C198.71 84.1147 201.511 98.1864 209.75 115.147C228.942 154.652 257.5 171.437 279.459 184.344L279.461 184.345L279.465 184.348L279.485 184.359C281.515 185.552 283.488 186.712 285.392 187.854C296.665 194.613 305.448 200.697 309.3 209.175C313.142 217.63 312.115 228.562 303.489 245.097L304.001 245.387C312.65 228.809 313.774 217.677 309.819 208.972C305.874 200.29 296.91 194.116 285.661 187.371C283.759 186.231 281.79 185.073 279.766 183.883L279.761 183.88L279.755 183.877L279.749 183.873L279.729 183.861L279.727 183.86C257.773 170.955 229.369 154.258 210.263 114.929C202.057 98.0389 199.292 84.0746 200.28 72.4691C200.331 71.8806 200.39 71.298 200.46 70.7214C203.392 69.7182 206.269 68.8015 209.04 67.954C210.017 77.2313 213.122 87.7508 218.93 99.7055C238.122 139.211 266.68 155.996 288.639 168.903L288.645 168.906C290.682 170.104 292.662 171.267 294.572 172.413C305.845 179.172 314.628 185.256 318.48 193.734C322.322 202.189 321.295 213.12 312.669 229.655L313.181 229.946C321.83 213.368 322.955 202.236 318.999 193.531C315.054 184.849 306.09 178.675 294.841 171.93C292.927 170.782 290.945 169.617 288.907 168.419C266.953 155.514 238.549 138.817 219.443 99.4879C213.627 87.5181 210.545 77.0177 209.594 67.7851C210.024 67.6543 210.451 67.5252 210.876 67.3977L210.675 66.8508C210.298 66.9641 209.918 67.0788 209.536 67.1947C209.508 66.8935 209.482 66.5936 209.458 66.2951C214.199 64.5845 218.847 63.111 223.195 61.8048L222.995 61.2579C218.701 62.5477 214.106 64.0027 209.413 65.6909C209.346 64.7205 209.302 63.7646 209.282 62.8229C217.987 58.8765 226.962 55.921 234.931 53.5273L234.73 52.9804C226.841 55.3502 217.937 58.2778 209.272 62.1845C209.257 60.6885 209.3 59.2286 209.4 57.8038C221.17 50.8413 234.606 46.2754 245.99 42.8561L245.789 42.3092C234.529 45.6914 221.203 50.2097 209.455 57.0888L209.46 57.028C209.616 55.2032 209.864 53.4361 210.199 51.7246C223.715 40.8889 241.736 34.6007 256.366 30.2063L256.165 29.6594C241.741 33.9918 223.926 40.1885 210.384 50.8237C210.817 48.8153 211.371 46.8847 212.034 45.0282C212.306 44.7165 212.582 44.4078 212.862 44.102C226.577 29.0965 248.733 21.2068 266.107 15.9881L265.906 15.4412C248.613 20.6356 226.445 28.5099 212.61 43.5009C214.843 37.8933 218.092 32.9824 222.042 28.6609C235.757 13.6554 257.913 5.76568 275.287 0.546907L275.086 0ZM193.078 71.8374C192.127 72.4948 191.192 73.171 190.276 73.8666L190.25 73.8998C190.606 73.7547 190.963 73.6112 191.319 73.469C191.992 73.1195 192.668 72.7767 193.347 72.4406C193.457 72.1743 193.568 71.9096 193.682 71.6464L193.443 71.7218L193.078 71.8374ZM194.427 71.4129C194.333 71.6234 194.24 71.8348 194.149 72.0473C195.28 71.4977 196.417 70.9661 197.559 70.4515C196.53 70.7622 195.485 71.0824 194.427 71.4129ZM198.107 70.2062C198.756 69.9169 199.407 69.6331 200.058 69.3545C200.16 68.657 200.275 67.9682 200.404 67.2881C198.486 68.362 196.604 69.4958 194.776 70.6947C195.844 70.3635 196.897 70.0428 197.933 69.7317L198.107 70.2062ZM192.795 71.3164C193.288 70.9765 193.785 70.6417 194.286 70.3118C194.59 69.6667 194.908 69.0314 195.239 68.4055C194.38 69.2366 193.548 70.0911 192.744 70.9701C192.59 71.1389 192.437 71.3086 192.285 71.4791C192.455 71.4246 192.625 71.3704 192.795 71.3164ZM199.931 70.2861C199.068 70.5829 198.2 70.8872 197.328 71.1996C198.204 70.8005 199.083 70.4114 199.964 70.032L199.947 70.1629L199.931 70.2861ZM208.98 67.3639C206.258 68.1953 203.428 69.0943 200.541 70.0775C200.555 69.9737 200.569 69.8702 200.584 69.7668C203.358 68.5866 206.145 67.501 208.903 66.4963C208.927 66.7843 208.953 67.0735 208.98 67.3639ZM208.856 65.8922C208.787 64.9418 208.741 64.0048 208.716 63.081C206.129 64.2683 203.568 65.5443 201.068 66.9201C200.924 67.6333 200.796 68.3562 200.683 69.0889C203.412 67.9364 206.149 66.8752 208.856 65.8922ZM200.554 66.5323C198.747 67.5318 196.971 68.5837 195.24 69.6925C195.681 68.8062 196.149 67.9387 196.642 67.0894C198.153 65.7148 199.736 64.4073 201.378 63.1623C201.066 64.2611 200.791 65.3842 200.554 66.5323ZM208.703 62.4426C206.177 63.5953 203.675 64.8322 201.226 66.1637C201.493 64.9404 201.804 63.7459 202.158 62.5796C204.287 61.0084 206.51 59.5389 208.8 58.1619C208.714 59.5561 208.681 60.9827 208.703 62.4426ZM208.849 57.4469C208.862 57.2773 208.875 57.1082 208.89 56.9395C209.025 55.3467 209.231 53.7974 209.502 52.2902C207.623 53.8371 205.835 55.4748 204.161 57.2109C203.524 58.637 202.954 60.1098 202.456 61.6312C204.513 60.1469 206.652 58.7548 208.849 57.4469ZM201.659 62.2148C202.053 60.9301 202.499 59.6792 202.992 58.4611C201.033 60.6181 199.25 62.9215 197.679 65.3843C198.962 64.284 200.291 63.2284 201.659 62.2148ZM209.674 51.389C208.014 52.7267 206.422 54.1333 204.912 55.6136C206.586 52.2255 208.644 49.1101 211.006 46.24C210.475 47.8985 210.028 49.6141 209.674 51.389ZM131.469 98.4487C145.29 83.3269 167.579 75.4054 184.95 70.1878L185.151 70.7347C167.776 75.9534 145.62 83.8431 131.905 98.8486C125.054 106.344 120.312 115.613 119.324 127.216C118.335 138.821 121.1 152.786 129.306 169.676C148.412 209.005 176.816 225.702 198.77 238.607L198.773 238.609L198.779 238.612C200.814 239.808 202.793 240.972 204.705 242.118C215.953 248.862 224.917 255.036 228.862 263.718C232.818 272.424 231.693 283.555 223.044 300.134L222.532 299.843C231.158 283.308 232.185 272.377 228.343 263.922C224.491 255.444 215.709 249.36 204.436 242.601C202.524 241.454 200.543 240.29 198.504 239.092L198.502 239.09C176.543 226.184 147.986 209.399 128.793 169.893C120.554 152.933 117.754 138.861 118.753 127.127C119.753 115.39 124.552 106.017 131.469 98.4487ZM171.866 68.7235C154.496 73.9411 132.207 81.8626 118.385 96.9844C111.468 104.552 106.669 113.926 105.67 125.663C104.67 137.397 107.471 151.469 115.71 168.429C134.902 207.935 163.459 224.719 185.419 237.626C187.458 238.825 189.44 239.99 191.352 241.136C202.625 247.895 211.407 253.979 215.26 262.457C219.101 270.912 218.074 281.844 209.449 298.379L209.961 298.67C218.61 282.091 219.734 270.96 215.779 262.254C211.834 253.572 202.87 247.398 191.621 240.654C189.707 239.506 187.725 238.34 185.686 237.142C163.733 224.237 135.329 207.54 116.222 168.211C108.017 151.321 105.252 137.357 106.24 125.751C107.228 114.149 111.97 104.88 118.821 97.3844C132.537 82.3789 154.693 74.4892 172.067 69.2704L171.866 68.7235ZM105.277 94.1652C119.098 79.0434 141.387 71.1219 158.758 65.9043L158.958 66.4512C141.584 71.6699 119.428 79.5596 105.713 94.5651C98.8616 102.061 94.1197 111.33 93.1316 122.932C92.1432 134.538 94.9083 148.502 103.114 165.392C122.22 204.721 150.624 221.418 172.578 234.323C174.616 235.521 176.598 236.687 178.513 237.834C189.761 244.579 198.725 250.753 202.67 259.435C206.626 268.14 205.501 279.272 196.852 295.85L196.34 295.56C204.966 279.025 205.993 268.093 202.151 259.638C198.299 251.16 189.516 245.076 178.244 238.317C176.331 237.171 174.349 236.005 172.31 234.807C150.351 221.9 121.794 205.115 102.601 165.61C94.3618 148.649 91.5615 134.578 92.5608 122.844C93.5604 111.107 98.3597 101.733 105.277 94.1652ZM145.654 62.2536C128.283 67.4712 105.994 75.3927 92.173 90.5145C85.256 98.0824 80.4567 107.456 79.4571 119.193C78.4577 130.927 81.2581 144.999 89.4976 161.959C108.69 201.465 137.247 218.25 159.206 231.156L159.21 231.159L159.22 231.165L159.227 231.169L159.231 231.171L159.243 231.178C161.269 232.369 163.239 233.527 165.14 234.667C176.413 241.426 185.195 247.509 189.047 255.988C192.889 264.443 191.862 275.374 183.236 291.909L183.749 292.2C192.397 275.621 193.522 264.49 189.566 255.784C185.621 247.102 176.657 240.928 165.409 234.184C163.495 233.036 161.512 231.871 159.474 230.673L159.474 230.672C137.52 217.767 109.116 201.07 90.0099 161.742C81.8045 144.851 79.0394 130.887 80.0278 119.282C81.016 107.679 85.7578 98.4103 92.609 90.9145C106.324 75.909 128.48 68.0193 145.855 62.8005L145.654 62.2536ZM79.0764 86.4598C92.8978 71.338 115.187 63.4165 132.557 58.1989L132.758 58.7458C115.384 63.9646 93.2275 71.8543 79.5125 86.8598C72.6613 94.3556 67.9195 103.624 66.9313 115.227C65.9429 126.832 68.708 140.797 76.9134 157.687C96.0198 197.016 124.424 213.713 146.377 226.618L146.379 226.619L146.388 226.624C148.422 227.82 150.401 228.983 152.312 230.129C163.561 236.873 172.525 243.047 176.47 251.73C180.425 260.435 179.301 271.566 170.652 288.145L170.14 287.854C178.765 271.319 179.792 260.388 175.951 251.933C172.098 243.455 163.316 237.371 152.043 230.612C150.131 229.465 148.149 228.3 146.11 227.102C124.15 214.195 95.5932 197.41 76.401 157.904C68.1615 140.944 65.3612 126.872 66.3605 115.138C67.3601 103.402 72.1594 94.0277 79.0764 86.4598ZM119.464 54.0774C102.093 59.295 79.8045 67.2165 65.9831 82.3383C59.0661 89.9062 54.2669 99.2801 53.2672 111.017C52.2679 122.751 55.0683 136.823 63.3077 153.783C82.4999 193.289 111.057 210.073 133.016 222.98C135.055 224.179 137.037 225.344 138.95 226.49C150.223 233.249 159.005 239.333 162.857 247.811C166.699 256.266 165.672 267.198 157.046 283.733L157.559 284.023C166.207 267.445 167.332 256.314 163.377 247.608C159.432 238.926 150.468 232.752 139.219 226.007C137.305 224.86 135.323 223.695 133.285 222.497L133.284 222.496C111.331 209.591 82.9265 192.894 63.8201 153.565C55.6147 136.675 52.8496 122.711 53.838 111.105C54.8262 99.5028 59.568 90.2341 66.4192 82.7383C80.1342 67.7328 102.291 59.8431 119.665 54.6243L119.464 54.0774ZM52.8835 78.3996C66.7049 63.2778 88.9938 55.3563 106.364 50.1387L106.565 50.6856C89.1909 55.9044 67.0346 63.7941 53.3195 78.7996C46.4683 86.2954 41.7265 95.5641 40.7384 107.167C39.7499 118.772 42.5151 132.736 50.7205 149.627C69.8268 188.956 98.2311 205.653 120.184 218.558L120.187 218.559C122.224 219.757 124.206 220.921 126.119 222.069C137.368 228.813 146.332 234.987 150.277 243.669C154.232 252.375 153.108 263.506 144.459 280.085L143.947 279.794C152.573 263.259 153.6 252.328 149.758 243.873C145.906 235.394 137.123 229.311 125.85 222.552C123.938 221.405 121.956 220.24 119.917 219.041C97.9575 206.135 69.4003 189.35 50.2081 149.844C41.9686 132.884 39.1682 118.812 40.1676 107.078C41.1672 95.3414 45.9665 85.9675 52.8835 78.3996ZM93.2593 46.5701C75.8887 51.7877 53.5998 59.7092 39.7784 74.831C32.8614 82.3989 28.0621 91.7728 27.0625 103.51C26.0632 115.244 28.8635 129.315 37.103 146.276C56.2952 185.781 84.8524 202.566 106.812 215.473L106.815 215.475C108.853 216.673 110.834 217.837 112.745 218.983C124.018 225.742 132.8 231.826 136.653 240.304C140.494 248.759 139.467 259.691 130.842 276.225L131.354 276.516C140.003 259.938 141.127 248.806 137.172 240.101C133.227 231.419 124.263 225.245 113.014 218.5C111.1 217.352 109.117 216.187 107.079 214.989C85.126 202.084 56.7218 185.387 37.6154 146.058C29.41 129.168 26.6449 115.203 27.6333 103.598C28.6214 91.9955 33.3633 82.7268 40.2144 75.231C53.9295 60.2255 76.0858 52.3358 93.4602 47.117L93.2593 46.5701ZM26.6704 71.7633C40.4918 56.6415 62.7807 48.72 80.1513 43.5024L80.3522 44.0493C62.9778 49.2681 40.8215 57.1578 27.1064 72.1633C20.2552 79.6591 15.5134 88.9278 14.5253 100.53C13.5369 112.136 16.302 126.1 24.5074 142.99C43.6138 182.319 72.018 199.016 93.9714 211.921L93.9722 211.922C96.01 213.12 97.9922 214.285 99.9063 215.432C111.155 222.177 120.119 228.351 124.064 237.033C128.019 245.739 126.895 256.87 118.246 273.448L117.734 273.158C126.359 256.623 127.386 245.691 123.545 237.236C119.692 228.758 110.91 222.674 99.6373 215.915C97.7248 214.769 95.7426 213.604 93.7035 212.405C71.7444 199.498 43.1872 182.714 23.995 143.208C15.7555 126.248 12.9552 112.176 13.9545 100.442C14.9541 88.7051 19.7534 79.3312 26.6704 71.7633ZM67.0448 41.0241C49.6742 46.2417 27.3853 54.1632 13.5639 69.285C6.64691 76.8529 1.84766 86.2268 0.848044 97.9636C-0.151324 109.698 2.64906 123.769 10.8885 140.73C30.0807 180.235 58.6379 197.02 80.597 209.927L80.6022 209.93C82.6395 211.127 84.6199 212.291 86.5308 213.437C97.8037 220.196 106.586 226.28 110.438 234.758C114.28 243.213 113.253 254.145 104.627 270.679L105.14 270.97C113.788 254.392 114.913 243.26 110.957 234.555C107.012 225.873 98.0483 219.699 86.7998 212.954C84.8855 211.806 82.903 210.641 80.8649 209.443L80.8648 209.443C58.9114 196.538 30.5072 179.841 11.4009 140.512C3.19548 123.622 0.430374 109.657 1.41879 98.0521C2.40696 86.4495 7.14877 77.1808 14 69.685C27.715 54.6795 49.8713 46.7898 67.2457 41.571L67.0448 41.0241Z" fill="url(#paint0_radial_39_236)" fill-opacity="0.58"/>
<defs>
<radialGradient id="paint0_radial_39_236" cx="0" cy="0" r="1" gradientUnits="userSpaceOnUse" gradientTransform="translate(138.789 147.199) rotate(72.8709) scale(155.973 157.648)">
<stop stop-color="white"/>
<stop offset="0.215" stop-color="#7B7B7B" stop-opacity="0.415"/>
<stop offset="1" stop-color="#1E1E1E" stop-opacity="0"/>
<stop offset="1" stop-color="#0E0E35" stop-opacity="0"/>
<stop offset="1" stop-color="white" stop-opacity="0"/>
</radialGradient>
</defs>
</svg>
